<svg width="260" height="53" viewBox="0 0 260 53" fill="none" xmlns="http://www.w3.org/2000/svg">
<mask id="mask0_40310_9284" style="mask-type:luminance" maskUnits="userSpaceOnUse" x="0" y="0" width="260" height="53">
<path d="M259.111 0H0V53H259.111V0Z" fill="white"/>
</mask>
<g mask="url(#mask0_40310_9284)">
<path fill-rule="evenodd" clip-rule="evenodd" d="M27.4727 0.264404C42.3713 0.264404 54.587 12.08 54.587 26.5886C54.587 41.131 42.3713 52.9669 27.4727 52.9669C12.5359 52.9669 0.385254 41.131 0.385254 26.5886C0.385254 12.08 12.5359 0.264404 27.4727 0.264404ZM23.7261 49.3843L35.2889 29.8718L27.4727 29.8751L31.3542 23.3203H49.7159L45.8288 29.8912L39.1855 29.8718L27.4727 49.6833C40.5212 49.6833 51.212 39.2897 51.212 26.5886C51.212 13.9395 40.5211 3.56051 27.4727 3.56051C26.5259 3.56051 25.5663 3.61432 24.6752 3.73092L13.0158 23.3203H27.4727L23.5577 29.8718H5.22405L20.181 4.69256C10.6637 7.69608 3.75648 16.3999 3.75648 26.5886C3.75648 38.0481 12.4238 47.6207 23.7261 49.3843Z" fill="#1F1A17"/>
<path fill-rule="evenodd" clip-rule="evenodd" d="M64.541 39.3909H80.1357L81.0586 35.2522H70.8581L75.6986 13.1067H70.2752L64.541 39.3909Z" fill="#1F1A17"/>
<path fill-rule="evenodd" clip-rule="evenodd" d="M97.9643 18.6456C97.9643 21.1651 95.2511 22.2581 93.2755 22.7888C92.5734 21.8436 91.8412 20.6038 91.8412 19.4733C91.8412 17.4783 93.3158 16.3467 95.2511 16.3467C96.5655 16.3467 97.9643 16.8711 97.9643 18.6456ZM95.8296 34.6104C94.6279 35.4788 92.8874 35.9263 91.2657 35.9263C88.7022 35.9263 86.5398 34.8796 86.5398 32.1225C86.5398 29.4512 88.7839 28.3633 91.0281 27.5332L95.8296 34.6104ZM99.0845 39.3912H104.897L101.754 34.9538C104.426 32.319 105.94 28.7343 106.408 25.1204H101.676C101.599 27.419 100.633 29.5744 99.3136 31.4496L95.4065 25.988C99.008 24.7077 102.453 22.8267 102.453 18.6456C102.453 14.4995 98.1949 12.6565 94.977 12.6565C90.8714 12.6565 86.8904 14.7976 86.8904 19.3193C86.8904 21.6583 87.6991 22.7888 88.7839 24.224C84.8351 25.3841 81.3438 28.0211 81.3438 32.3867C81.3438 37.701 85.9915 39.8483 90.7552 39.8483C93.2755 39.8483 96.3734 39.0947 98.1176 37.8843L99.0845 39.3912Z" fill="#1F1A17"/>
<path fill-rule="evenodd" clip-rule="evenodd" d="M105.679 17.2515H112.909L107.993 39.3907H113.648L118.565 17.2515H125.388L126.28 13.1067H106.606L105.679 17.2515Z" fill="#1F1A17"/>
<path d="M137.713 13.1143H152.636L151.695 17.254H142.249L140.813 23.7329H149.843L148.992 27.8743H139.928L137.446 39.399H132.022L137.713 13.1143Z" fill="#1F1A17"/>
<path d="M156.383 11.6406H161.578L160.492 16.4626H155.301L156.383 11.6406ZM154.487 20.0026H159.681L155.416 39.3998H150.227L154.487 20.0026Z" fill="#1F1A17"/>
<path d="M163.055 22.7928C163.286 21.6218 163.482 20.6046 163.561 20.0034H168.628L168.288 21.8834H168.361C169.794 20.6046 171.767 19.5532 174.017 19.5532C177.929 19.5532 180.525 21.9241 180.525 25.7697C180.525 27.2368 180.134 28.7828 179.862 29.984L177.773 39.4002H172.583L174.521 30.2548C174.793 28.9266 175.107 27.6073 175.107 26.1804C175.107 24.5621 173.937 23.465 172.273 23.465C168.673 23.465 167.355 26.7469 166.697 29.6483L164.569 39.4002H159.372L163.055 22.7928Z" fill="#1F1A17"/>
<path d="M189.015 36.1647C192.886 36.1647 194.09 33.5618 194.9 30.4332H193.077C190.561 30.4332 186.379 30.8495 186.379 34.1267C186.379 35.4819 187.698 36.1647 189.015 36.1647ZM194.09 36.4267H194.014C192.227 38.61 190.444 39.8526 187.576 39.8526C183.977 39.8526 181.422 37.8917 181.422 34.3137C181.422 27.9122 188.782 27.4264 193.662 27.4264H195.48C195.639 26.8922 195.639 26.3295 195.639 25.7692C195.639 23.8104 193.466 23.2379 191.647 23.2379C189.358 23.2379 187.153 23.8104 185.098 24.7462L185.836 20.7188C188.042 19.9718 190.29 19.5532 192.614 19.5532C196.607 19.5532 200.364 20.9863 200.364 25.5418C200.364 28.1376 198.389 35.7428 197.925 39.4002H193.545L194.09 36.4267Z" fill="#1F1A17"/>
<path d="M205.02 22.7928C205.248 21.6218 205.445 20.6046 205.519 20.0034H210.592L210.242 21.8834H210.322C211.754 20.6046 213.73 19.5532 215.975 19.5532C219.886 19.5532 222.487 21.9241 222.487 25.7697C222.487 27.2368 222.101 28.7828 221.826 29.984L219.737 39.4002H214.546L216.48 30.2548C216.752 28.9266 217.065 27.6073 217.065 26.1804C217.065 24.5621 215.898 23.465 214.238 23.465C210.634 23.465 209.318 26.7469 208.657 29.6483L206.526 39.4002H201.337L205.02 22.7928Z" fill="#1F1A17"/>
<path d="M239.842 24.4496C238.836 23.8104 237.481 23.4644 236.047 23.4644C231.903 23.4644 229.577 27.2365 229.577 30.8872C229.577 33.4104 230.431 35.9358 233.993 35.9358C235.273 35.9358 236.863 35.5936 238.217 34.9561L237.635 38.951C236.047 39.6989 234.342 39.8523 232.641 39.8523C227.488 39.8523 224.157 36.5003 224.157 31.488C224.157 24.7106 228.762 19.5532 235.928 19.5532C237.869 19.5532 239.724 19.8917 241.118 20.304L239.842 24.4496Z" fill="#1F1A17"/>
<path d="M253.835 27.7983C253.912 27.3495 253.949 26.9344 253.949 26.4845C253.949 24.4123 252.823 23.2379 250.653 23.2379C247.442 23.2379 246.044 25.1253 245.039 27.7983H253.835ZM244.343 31.2628C244.343 34.8427 246.314 36.1647 249.882 36.1647C252.01 36.1647 254.066 35.6338 256.002 34.7691L255.342 38.762C253.327 39.3642 251.124 39.8525 248.99 39.8525C243.257 39.8525 239.388 37.1379 239.388 31.3761C239.388 25.3488 244.186 19.5532 250.734 19.5532C255.649 19.5532 258.907 22.0048 258.907 26.9344C258.907 28.4027 258.71 29.8337 258.4 31.2627L244.343 31.2628Z" fill="#1F1A17"/>
</g>
</svg>
